<svg xmlns = "http://www.w3.org/2000/svg" width = "1000" height = "1000">
<g>
<polygon points = "632.117, 608.426 649.369, 604.406 644.118, 692.501 595.442, 741.128 545.313, 689.670 "
fill = "none" stroke = "black"/>
</g>
<g>
<polygon points = "737.279, 756.906 751.587, 746.510 830.933, 769.892 863.338, 818.406 808.587, 849.718 745.294, 820.207 "
fill = "none" stroke = "black"/>
</g>
<g>
<polygon points = "193.431, 691.639 141.642, 652.115 133.570, 642.864 200.377, 603.455 237.446, 617.232 208.620, 695.133 "
fill = "none" stroke = "black"/>
</g>
<g>
<polygon points = "254.016, 614.406 286.518, 590.175 331.496, 585.061 409.001, 664.714 413.096, 708.337 408.917, 721.580 362.129, 753.243 278.880, 682.253 "
fill = "none" stroke = "black"/>
</g>
<g>
<polygon points = ""
fill = "none" stroke = "black"/>
</g>
<g>
<polygon points = "388.588, 111.008 309.300, 187.394 216.142, 171.230 243.359, 0.000 375.283, 0.000 "
fill = "none" stroke = "black"/>
</g>
<g>
<polygon points = "590.680, 768.784 571.435, 785.890 453.813, 762.586 408.917, 721.580 413.096, 708.337 516.582, 684.794 545.313, 689.670 595.442, 741.128 "
fill = "none" stroke = "black"/>
</g>
<g>
<polygon points = ""
fill = "none" stroke = "black"/>
</g>
<g>
<polygon points = "216.016, 485.272 237.601, 457.110 343.462, 532.422 331.496, 585.061 286.518, 590.175 "
fill = "none" stroke = "black"/>
</g>
<g>
<polygon points = "574.469, 474.184 642.383, 406.954 743.668, 406.960 748.854, 412.814 621.709, 510.605 "
fill = "none" stroke = "black"/>
</g>
<g>
<polygon points = "543.341, 107.157 594.094, 173.015 570.181, 191.468 451.544, 207.143 449.961, 193.657 "
fill = "none" stroke = "black"/>
</g>
<g>
<polygon points = "812.833, 284.518 894.512, 241.114 1000.000, 277.877 1000.000, 320.758 "
fill = "none" stroke = "black"/>
</g>
<g>
<polygon points = "825.834, 581.699 842.412, 650.969 761.528, 693.029 689.126, 595.356 785.212, 542.457 "
fill = "none" stroke = "black"/>
</g>
<g>
<polygon points = "606.963, 304.339 633.906, 184.526 712.946, 153.090 755.204, 226.907 754.724, 234.213 704.791, 318.661 620.868, 310.947 "
fill = "none" stroke = "black"/>
</g>
<g>
<polygon points = ""
fill = "none" stroke = "black"/>
</g>
<g>
<polygon points = ""
fill = "none" stroke = "black"/>
</g>
<g>
<polygon points = ""
fill = "none" stroke = "black"/>
</g>
<g>
<polygon points = "832.297, 211.770 894.512, 241.114 812.833, 284.518 804.993, 284.333 754.724, 234.213 755.204, 226.907 "
fill = "none" stroke = "black"/>
</g>
<g>
<polygon points = "589.343, 869.035 661.786, 826.451 705.526, 887.671 707.482, 1000.000 617.110, 1000.000 "
fill = "none" stroke = "black"/>
</g>
<g>
<polygon points = "804.272, 438.057 785.212, 542.457 689.126, 595.356 657.544, 595.392 621.709, 510.605 748.854, 412.814 "
fill = "none" stroke = "black"/>
</g>
<g>
<polygon points = "873.406, 822.146 863.338, 818.406 830.933, 769.892 848.775, 734.033 1000.000, 718.061 1000.000, 845.753 "
fill = "none" stroke = "black"/>
</g>
<g>
<polygon points = "357.136, 759.255 230.356, 766.703 210.491, 697.548 278.880, 682.253 362.129, 753.243 "
fill = "none" stroke = "black"/>
</g>
<g>
<polygon points = ""
fill = "none" stroke = "black"/>
</g>
<g>
<polygon points = "385.255, 965.507 468.944, 815.650 501.240, 861.659 469.395, 1000.000 386.413, 1000.000 "
fill = "none" stroke = "black"/>
</g>
<g>
<polygon points = "123.365, 566.713 192.645, 578.607 200.377, 603.455 133.570, 642.864 0.000, 622.191 0.000, 586.810 "
fill = "none" stroke = "black"/>
</g>
<g>
<polygon points = "836.617, 423.455 804.272, 438.057 748.854, 412.814 743.668, 406.960 704.791, 318.661 754.724, 234.213 804.993, 284.333 "
fill = "none" stroke = "black"/>
</g>
<g>
<polygon points = "335.301, 234.356 442.642, 274.921 456.278, 317.982 394.080, 375.785 290.535, 377.866 261.149, 375.771 228.384, 338.083 "
fill = "none" stroke = "black"/>
</g>
<g>
<polygon points = ""
fill = "none" stroke = "black"/>
</g>
<g>
<polygon points = ""
fill = "none" stroke = "black"/>
</g>
<g>
<polygon points = "353.471, 784.096 385.255, 965.507 386.413, 1000.000 118.433, 1000.000 "
fill = "none" stroke = "black"/>
</g>
<g>
<polygon points = "207.046, 181.087 224.865, 335.797 0.000, 357.509 0.000, 179.099 "
fill = "none" stroke = "black"/>
</g>
<g>
<polygon points = ""
fill = "none" stroke = "black"/>
</g>
<g>
<polygon points = "501.240, 861.659 468.944, 815.650 453.813, 762.586 571.435, 785.890 571.559, 843.605 "
fill = "none" stroke = "black"/>
</g>
<g>
<polygon points = "894.512, 241.114 832.297, 211.770 867.024, 134.991 1000.000, 35.635 1000.000, 277.877 "
fill = "none" stroke = "black"/>
</g>
<g>
<polygon points = "457.811, 595.257 400.896, 484.453 409.180, 465.845 520.673, 502.310 495.620, 573.967 "
fill = "none" stroke = "black"/>
</g>
<g>
<polygon points = "394.080, 375.785 456.278, 317.982 497.037, 328.273 554.058, 437.923 566.875, 471.599 520.673, 502.310 409.180, 465.845 "
fill = "none" stroke = "black"/>
</g>
<g>
<polygon points = ""
fill = "none" stroke = "black"/>
</g>
<g>
<polygon points = "716.242, 138.161 712.946, 153.090 633.906, 184.526 594.094, 173.015 543.341, 107.157 545.782, 0.000 713.416, 0.000 "
fill = "none" stroke = "black"/>
</g>
<g>
<polygon points = ""
fill = "none" stroke = "black"/>
</g>
<g>
<polygon points = ""
fill = "none" stroke = "black"/>
</g>
<g>
<polygon points = ""
fill = "none" stroke = "black"/>
</g>
<g>
<polygon points = ""
fill = "none" stroke = "black"/>
</g>
<g>
<polygon points = "799.452, 1000.000 873.406, 822.146 1000.000, 845.753 1000.000, 1000.000 "
fill = "none" stroke = "black"/>
</g>
<g>
<polygon points = "626.987, 372.193 620.868, 310.947 704.791, 318.661 743.668, 406.960 642.383, 406.954 "
fill = "none" stroke = "black"/>
</g>
<g>
<polygon points = "550.777, 604.350 632.117, 608.426 545.313, 689.670 516.582, 684.794 "
fill = "none" stroke = "black"/>
</g>
<g>
<polygon points = "345.902, 529.678 343.462, 532.422 237.601, 457.110 261.149, 375.771 290.535, 377.866 "
fill = "none" stroke = "black"/>
</g>
<g>
<polygon points = ""
fill = "none" stroke = "black"/>
</g>
<g>
<polygon points = ""
fill = "none" stroke = "black"/>
</g>
<g>
<polygon points = "660.696, 796.588 661.786, 826.451 589.343, 869.035 571.559, 843.605 571.435, 785.890 590.680, 768.784 "
fill = "none" stroke = "black"/>
</g>
<g>
<polygon points = "210.491, 697.548 208.620, 695.133 237.446, 617.232 254.016, 614.406 278.880, 682.253 "
fill = "none" stroke = "black"/>
</g>
<g>
<polygon points = ""
fill = "none" stroke = "black"/>
</g>
<g>
<polygon points = "216.142, 171.230 207.046, 181.087 0.000, 179.099 0.000, 0.000 243.359, 0.000 "
fill = "none" stroke = "black"/>
</g>
<g>
<polygon points = "747.478, 1000.000 707.482, 1000.000 705.526, 887.671 745.294, 820.207 808.587, 849.718 "
fill = "none" stroke = "black"/>
</g>
<g>
<polygon points = "141.642, 652.115 193.431, 691.639 148.231, 730.632 "
fill = "none" stroke = "black"/>
</g>
<g>
<polygon points = ""
fill = "none" stroke = "black"/>
</g>
<g>
<polygon points = "718.889, 756.708 660.696, 796.588 590.680, 768.784 595.442, 741.128 644.118, 692.501 "
fill = "none" stroke = "black"/>
</g>
<g>
<polygon points = "867.024, 134.991 716.242, 138.161 713.416, 0.000 1000.000, 0.000 1000.000, 35.635 "
fill = "none" stroke = "black"/>
</g>
<g>
<polygon points = ""
fill = "none" stroke = "black"/>
</g>
<g>
<polygon points = "850.703, 656.997 842.412, 650.969 825.834, 581.699 1000.000, 546.932 1000.000, 674.433 "
fill = "none" stroke = "black"/>
</g>
<g>
<polygon points = "203.272, 491.929 194.208, 525.411 123.365, 566.713 0.000, 586.810 0.000, 466.589 "
fill = "none" stroke = "black"/>
</g>
<g>
<polygon points = ""
fill = "none" stroke = "black"/>
</g>
<g>
<polygon points = "501.240, 861.659 571.559, 843.605 589.343, 869.035 617.110, 1000.000 469.395, 1000.000 "
fill = "none" stroke = "black"/>
</g>
<g>
<polygon points = ""
fill = "none" stroke = "black"/>
</g>
<g>
<polygon points = "44.411, 924.497 148.231, 730.632 193.431, 691.639 208.620, 695.133 210.491, 697.548 230.356, 766.703 "
fill = "none" stroke = "black"/>
</g>
<g>
<polygon points = "449.961, 193.657 451.544, 207.143 442.642, 274.921 335.301, 234.356 309.300, 187.394 388.588, 111.008 "
fill = "none" stroke = "black"/>
</g>
<g>
<polygon points = "850.703, 656.997 848.775, 734.033 830.933, 769.892 751.587, 746.510 761.528, 693.029 842.412, 650.969 "
fill = "none" stroke = "black"/>
</g>
<g>
<polygon points = "133.570, 642.864 141.642, 652.115 148.231, 730.632 44.411, 924.497 0.000, 970.524 0.000, 622.191 "
fill = "none" stroke = "black"/>
</g>
<g>
<polygon points = "543.341, 107.157 449.961, 193.657 388.588, 111.008 375.283, 0.000 545.782, 0.000 "
fill = "none" stroke = "black"/>
</g>
<g>
<polygon points = "836.617, 423.455 804.993, 284.333 812.833, 284.518 1000.000, 320.758 1000.000, 395.702 "
fill = "none" stroke = "black"/>
</g>
<g>
<polygon points = "867.024, 134.991 832.297, 211.770 755.204, 226.907 712.946, 153.090 716.242, 138.161 "
fill = "none" stroke = "black"/>
</g>
<g>
<polygon points = "799.452, 1000.000 747.478, 1000.000 808.587, 849.718 863.338, 818.406 873.406, 822.146 "
fill = "none" stroke = "black"/>
</g>
<g>
<polygon points = ""
fill = "none" stroke = "black"/>
</g>
<g>
<polygon points = "633.906, 184.526 606.963, 304.339 524.273, 317.916 570.181, 191.468 594.094, 173.015 "
fill = "none" stroke = "black"/>
</g>
<g>
<polygon points = ""
fill = "none" stroke = "black"/>
</g>
<g>
<polygon points = ""
fill = "none" stroke = "black"/>
</g>
<g>
<polygon points = "409.180, 465.845 400.896, 484.453 345.902, 529.678 290.535, 377.866 394.080, 375.785 "
fill = "none" stroke = "black"/>
</g>
<g>
<polygon points = ""
fill = "none" stroke = "black"/>
</g>
<g>
<polygon points = "44.411, 924.497 230.356, 766.703 357.136, 759.255 353.471, 784.096 118.433, 1000.000 0.000, 1000.000 0.000, 970.524 "
fill = "none" stroke = "black"/>
</g>
<g>
<polygon points = ""
fill = "none" stroke = "black"/>
</g>
<g>
<polygon points = "554.058, 437.923 497.037, 328.273 524.273, 317.916 606.963, 304.339 620.868, 310.947 626.987, 372.193 "
fill = "none" stroke = "black"/>
</g>
<g>
<polygon points = "224.865, 335.797 228.384, 338.083 261.149, 375.771 237.601, 457.110 216.016, 485.272 203.272, 491.929 0.000, 466.589 0.000, 357.509 "
fill = "none" stroke = "black"/>
</g>
<g>
<polygon points = "848.775, 734.033 850.703, 656.997 1000.000, 674.433 1000.000, 718.061 "
fill = "none" stroke = "black"/>
</g>
<g>
<polygon points = "657.544, 595.392 689.126, 595.356 761.528, 693.029 751.587, 746.510 737.279, 756.906 718.889, 756.708 644.118, 692.501 649.369, 604.406 "
fill = "none" stroke = "black"/>
</g>
<g>
<polygon points = "825.834, 581.699 785.212, 542.457 804.272, 438.057 836.617, 423.455 1000.000, 395.702 1000.000, 546.932 "
fill = "none" stroke = "black"/>
</g>
<g>
<polygon points = "524.273, 317.916 497.037, 328.273 456.278, 317.982 442.642, 274.921 451.544, 207.143 570.181, 191.468 "
fill = "none" stroke = "black"/>
</g>
<g>
<polygon points = "224.865, 335.797 207.046, 181.087 216.142, 171.230 309.300, 187.394 335.301, 234.356 228.384, 338.083 "
fill = "none" stroke = "black"/>
</g>
<g>
<polygon points = "343.462, 532.422 345.902, 529.678 400.896, 484.453 457.811, 595.257 409.001, 664.714 331.496, 585.061 "
fill = "none" stroke = "black"/>
</g>
<g>
<polygon points = "566.875, 471.599 554.058, 437.923 626.987, 372.193 642.383, 406.954 574.469, 474.184 "
fill = "none" stroke = "black"/>
</g>
<g>
<polygon points = ""
fill = "none" stroke = "black"/>
</g>
<g>
<polygon points = "192.645, 578.607 194.208, 525.411 203.272, 491.929 216.016, 485.272 286.518, 590.175 254.016, 614.406 237.446, 617.232 200.377, 603.455 "
fill = "none" stroke = "black"/>
</g>
<g>
<polygon points = "353.471, 784.096 357.136, 759.255 362.129, 753.243 408.917, 721.580 453.813, 762.586 468.944, 815.650 385.255, 965.507 "
fill = "none" stroke = "black"/>
</g>
<g>
<polygon points = "718.889, 756.708 737.279, 756.906 745.294, 820.207 705.526, 887.671 661.786, 826.451 660.696, 796.588 "
fill = "none" stroke = "black"/>
</g>
<g>
<polygon points = "550.777, 604.350 495.620, 573.967 520.673, 502.310 566.875, 471.599 574.469, 474.184 621.709, 510.605 657.544, 595.392 649.369, 604.406 632.117, 608.426 "
fill = "none" stroke = "black"/>
</g>
<g>
<polygon points = ""
fill = "none" stroke = "black"/>
</g>
<g>
<polygon points = "457.811, 595.257 495.620, 573.967 550.777, 604.350 516.582, 684.794 413.096, 708.337 409.001, 664.714 "
fill = "none" stroke = "black"/>
</g>
<g>
<polygon points = ""
fill = "none" stroke = "black"/>
</g>
<g>
<polygon points = ""
fill = "none" stroke = "black"/>
</g>
<g>
<polygon points = ""
fill = "none" stroke = "black"/>
</g>
<g>
<polygon points = ""
fill = "none" stroke = "black"/>
</g>
<g>
<polygon points = "194.208, 525.411 192.645, 578.607 123.365, 566.713 "
fill = "none" stroke = "black"/>
</g>
</svg>
