<svg xmlns = "http://www.w3.org/2000/svg" width = "1000" height = "1000">
<g>
<polygon points = "836.452, 11.509 817.607, 157.690 750.557, 125.885 698.944, 82.956 "
fill = "none" stroke = "black"/>
</g>
<g>
<polygon points = "593.922, 604.732 636.097, 604.957 662.055, 745.160 612.545, 789.936 574.607, 632.674 "
fill = "none" stroke = "black"/>
</g>
<g>
<polygon points = "729.502, 462.276 748.403, 378.671 792.777, 372.146 858.623, 401.540 862.592, 405.838 862.713, 407.950 840.123, 466.378 831.803, 474.567 "
fill = "none" stroke = "black"/>
</g>
<g>
<polygon points = "595.629, 829.704 610.267, 835.947 709.867, 948.573 702.100, 1000.000 671.659, 1000.000 573.626, 872.866 "
fill = "none" stroke = "black"/>
</g>
<g>
<polygon points = "363.874, 383.290 363.170, 384.053 179.290, 400.933 158.853, 377.579 163.538, 365.127 250.524, 319.314 333.359, 349.558 "
fill = "none" stroke = "black"/>
</g>
<g>
<polygon points = "871.189, 507.490 840.123, 466.378 862.713, 407.950 1000.000, 459.499 1000.000, 490.779 "
fill = "none" stroke = "black"/>
</g>
<g>
<polygon points = "766.447, 745.075 753.788, 762.765 662.055, 745.160 636.097, 604.957 655.743, 599.233 "
fill = "none" stroke = "black"/>
</g>
<g>
<polygon points = "230.536, 236.804 253.269, 221.187 331.347, 244.204 345.416, 268.458 333.359, 349.558 250.524, 319.314 "
fill = "none" stroke = "black"/>
</g>
<g>
<polygon points = "510.627, 732.592 507.259, 705.167 574.607, 632.674 612.545, 789.936 594.831, 819.910 "
fill = "none" stroke = "black"/>
</g>
<g>
<polygon points = "759.897, 847.692 827.909, 852.625 792.253, 939.264 733.628, 1000.000 702.100, 1000.000 709.867, 948.573 "
fill = "none" stroke = "black"/>
</g>
<g>
<polygon points = "810.661, 509.361 812.187, 585.790 732.728, 598.229 679.176, 583.257 659.013, 533.557 "
fill = "none" stroke = "black"/>
</g>
<g>
<polygon points = "444.834, 460.132 519.209, 407.806 589.602, 478.097 559.326, 537.304 447.328, 479.259 "
fill = "none" stroke = "black"/>
</g>
<g>
<polygon points = "226.503, 28.055 142.227, 87.711 110.497, 77.569 45.873, 0.000 224.876, 0.000 "
fill = "none" stroke = "black"/>
</g>
<g>
<polygon points = "520.542, 892.690 573.626, 872.866 671.659, 1000.000 565.988, 1000.000 "
fill = "none" stroke = "black"/>
</g>
<g>
<polygon points = "388.765, 129.888 413.814, 180.845 418.728, 252.491 345.416, 268.458 331.347, 244.204 354.335, 94.047 "
fill = "none" stroke = "black"/>
</g>
<g>
<polygon points = "556.337, 555.869 559.326, 537.304 589.602, 478.097 600.099, 477.691 608.913, 483.776 659.013, 533.557 679.176, 583.257 655.743, 599.233 636.097, 604.957 593.922, 604.732 "
fill = "none" stroke = "black"/>
</g>
<g>
<polygon points = "750.981, 818.041 610.267, 835.947 595.629, 829.704 594.831, 819.910 612.545, 789.936 662.055, 745.160 753.788, 762.765 "
fill = "none" stroke = "black"/>
</g>
<g>
<polygon points = "795.260, 682.517 905.178, 672.568 919.066, 687.224 892.219, 770.083 871.382, 783.011 788.031, 736.141 "
fill = "none" stroke = "black"/>
</g>
<g>
<polygon points = "474.643, 610.307 422.926, 559.204 421.719, 554.880 447.328, 479.259 559.326, 537.304 556.337, 555.869 "
fill = "none" stroke = "black"/>
</g>
<g>
<polygon points = "56.187, 425.171 60.331, 445.956 48.070, 604.692 0.000, 611.561 0.000, 424.311 "
fill = "none" stroke = "black"/>
</g>
<g>
<polygon points = "28.593, 134.157 89.080, 240.703 89.239, 246.165 77.269, 265.572 0.000, 307.502 0.000, 133.295 "
fill = "none" stroke = "black"/>
</g>
<g>
<polygon points = "926.045, 98.829 923.528, 97.969 839.665, 8.483 840.214, 0.000 1000.000, 0.000 1000.000, 44.215 "
fill = "none" stroke = "black"/>
</g>
<g>
<polygon points = "625.689, 258.115 655.991, 289.499 666.664, 380.221 630.480, 422.469 569.719, 313.928 581.914, 266.812 "
fill = "none" stroke = "black"/>
</g>
<g>
<polygon points = "892.219, 770.083 919.066, 687.224 1000.000, 696.657 1000.000, 817.850 "
fill = "none" stroke = "black"/>
</g>
<g>
<polygon points = "396.260, 789.725 338.223, 742.843 457.465, 643.922 469.777, 638.930 491.256, 692.567 "
fill = "none" stroke = "black"/>
</g>
<g>
<polygon points = "749.984, 287.611 792.777, 372.146 748.403, 378.671 666.664, 380.221 655.991, 289.499 "
fill = "none" stroke = "black"/>
</g>
<g>
<polygon points = "244.315, 857.360 166.345, 911.912 127.915, 870.103 236.434, 732.527 "
fill = "none" stroke = "black"/>
</g>
<g>
<polygon points = "112.863, 867.186 111.604, 864.099 129.505, 716.235 239.264, 724.228 238.935, 725.504 236.434, 732.527 127.915, 870.103 "
fill = "none" stroke = "black"/>
</g>
<g>
<polygon points = "469.777, 638.930 457.465, 643.922 267.111, 670.687 422.926, 559.204 474.643, 610.307 "
fill = "none" stroke = "black"/>
</g>
<g>
<polygon points = "110.497, 77.569 142.227, 87.711 151.272, 107.393 89.080, 240.703 28.593, 134.157 "
fill = "none" stroke = "black"/>
</g>
<g>
<polygon points = "137.927, 285.685 89.239, 246.165 89.080, 240.703 151.272, 107.393 155.671, 110.750 199.668, 217.436 "
fill = "none" stroke = "black"/>
</g>
<g>
<polygon points = "862.592, 405.838 858.623, 401.540 886.521, 314.367 946.056, 258.180 977.143, 261.390 1000.000, 271.585 1000.000, 315.921 "
fill = "none" stroke = "black"/>
</g>
<g>
<polygon points = "110.497, 77.569 28.593, 134.157 0.000, 133.295 0.000, 0.000 45.873, 0.000 "
fill = "none" stroke = "black"/>
</g>
<g>
<polygon points = "282.256, 115.436 338.290, 88.850 352.113, 90.990 354.335, 94.047 331.347, 244.204 253.269, 221.187 "
fill = "none" stroke = "black"/>
</g>
<g>
<polygon points = "127.823, 557.085 136.713, 519.057 281.084, 563.784 260.928, 654.964 "
fill = "none" stroke = "black"/>
</g>
<g>
<polygon points = "93.314, 698.797 79.989, 625.045 253.012, 684.708 250.912, 710.095 239.264, 724.228 129.505, 716.235 "
fill = "none" stroke = "black"/>
</g>
<g>
<polygon points = "403.956, 815.146 364.765, 861.148 238.935, 725.504 239.264, 724.228 250.912, 710.095 338.223, 742.843 396.260, 789.725 "
fill = "none" stroke = "black"/>
</g>
<g>
<polygon points = "986.539, 881.595 883.560, 920.113 792.253, 939.264 827.909, 852.625 847.720, 833.078 "
fill = "none" stroke = "black"/>
</g>
<g>
<polygon points = "352.113, 90.990 338.290, 88.850 226.503, 28.055 224.876, 0.000 400.202, 0.000 "
fill = "none" stroke = "black"/>
</g>
<g>
<polygon points = "338.290, 88.850 282.256, 115.436 155.671, 110.750 151.272, 107.393 142.227, 87.711 226.503, 28.055 "
fill = "none" stroke = "black"/>
</g>
<g>
<polygon points = "506.408, 213.684 508.980, 218.168 478.665, 351.686 444.993, 330.077 418.728, 252.491 413.814, 180.845 "
fill = "none" stroke = "black"/>
</g>
<g>
<polygon points = "928.678, 1000.000 733.628, 1000.000 792.253, 939.264 883.560, 920.113 "
fill = "none" stroke = "black"/>
</g>
<g>
<polygon points = "282.256, 115.436 253.269, 221.187 230.536, 236.804 199.668, 217.436 155.671, 110.750 "
fill = "none" stroke = "black"/>
</g>
<g>
<polygon points = "175.873, 951.707 195.437, 993.970 195.458, 1000.000 0.000, 1000.000 0.000, 940.534 "
fill = "none" stroke = "black"/>
</g>
<g>
<polygon points = "748.403, 378.671 729.502, 462.276 608.913, 483.776 600.099, 477.691 630.480, 422.469 666.664, 380.221 "
fill = "none" stroke = "black"/>
</g>
<g>
<polygon points = "363.260, 863.640 306.263, 889.715 244.315, 857.360 236.434, 732.527 238.935, 725.504 364.765, 861.148 "
fill = "none" stroke = "black"/>
</g>
<g>
<polygon points = "852.018, 186.392 817.607, 157.690 836.452, 11.509 839.665, 8.483 923.528, 97.969 "
fill = "none" stroke = "black"/>
</g>
<g>
<polygon points = "847.720, 833.078 827.909, 852.625 759.897, 847.692 750.981, 818.041 753.788, 762.765 766.447, 745.075 788.031, 736.141 871.382, 783.011 "
fill = "none" stroke = "black"/>
</g>
<g>
<polygon points = "977.143, 261.390 946.056, 258.180 866.084, 210.752 852.018, 186.392 923.528, 97.969 926.045, 98.829 "
fill = "none" stroke = "black"/>
</g>
<g>
<polygon points = "296.476, 913.048 306.263, 889.715 363.260, 863.640 440.798, 942.088 433.472, 1000.000 418.627, 1000.000 "
fill = "none" stroke = "black"/>
</g>
<g>
<polygon points = "440.798, 942.088 363.260, 863.640 364.765, 861.148 403.956, 815.146 489.791, 847.896 507.033, 882.097 "
fill = "none" stroke = "black"/>
</g>
<g>
<polygon points = "379.253, 542.029 284.505, 552.119 266.252, 487.970 350.067, 406.579 "
fill = "none" stroke = "black"/>
</g>
<g>
<polygon points = "581.914, 266.812 569.719, 313.928 512.153, 392.355 478.665, 351.686 508.980, 218.168 "
fill = "none" stroke = "black"/>
</g>
<g>
<polygon points = "750.981, 818.041 759.897, 847.692 709.867, 948.573 610.267, 835.947 "
fill = "none" stroke = "black"/>
</g>
<g>
<polygon points = "977.143, 261.390 926.045, 98.829 1000.000, 44.215 1000.000, 271.585 "
fill = "none" stroke = "black"/>
</g>
<g>
<polygon points = "637.642, 14.238 600.511, 40.148 477.897, 82.053 440.989, 0.000 633.649, 0.000 "
fill = "none" stroke = "black"/>
</g>
<g>
<polygon points = "916.201, 593.845 871.189, 507.490 1000.000, 490.779 1000.000, 587.483 "
fill = "none" stroke = "black"/>
</g>
<g>
<polygon points = "350.067, 406.579 266.252, 487.970 200.682, 441.922 179.290, 400.933 363.170, 384.053 "
fill = "none" stroke = "black"/>
</g>
<g>
<polygon points = "507.033, 882.097 489.791, 847.896 510.627, 732.592 594.831, 819.910 595.629, 829.704 573.626, 872.866 520.542, 892.690 "
fill = "none" stroke = "black"/>
</g>
<g>
<polygon points = "884.801, 631.061 905.178, 672.568 795.260, 682.517 732.728, 598.229 812.187, 585.790 "
fill = "none" stroke = "black"/>
</g>
<g>
<polygon points = "491.256, 692.567 469.777, 638.930 474.643, 610.307 556.337, 555.869 593.922, 604.732 574.607, 632.674 507.259, 705.167 "
fill = "none" stroke = "black"/>
</g>
<g>
<polygon points = "195.437, 993.970 175.873, 951.707 166.345, 911.912 244.315, 857.360 306.263, 889.715 296.476, 913.048 "
fill = "none" stroke = "black"/>
</g>
<g>
<polygon points = "267.111, 670.687 259.840, 673.871 260.928, 654.964 281.084, 563.784 284.505, 552.119 379.253, 542.029 421.719, 554.880 422.926, 559.204 "
fill = "none" stroke = "black"/>
</g>
<g>
<polygon points = "195.437, 993.970 296.476, 913.048 418.627, 1000.000 195.458, 1000.000 "
fill = "none" stroke = "black"/>
</g>
<g>
<polygon points = "93.314, 698.797 129.505, 716.235 111.604, 864.099 11.829, 745.400 "
fill = "none" stroke = "black"/>
</g>
<g>
<polygon points = "418.728, 252.491 444.993, 330.077 375.257, 384.664 363.874, 383.290 333.359, 349.558 345.416, 268.458 "
fill = "none" stroke = "black"/>
</g>
<g>
<polygon points = "200.682, 441.922 138.365, 496.973 60.331, 445.956 56.187, 425.171 70.373, 412.306 158.853, 377.579 179.290, 400.933 "
fill = "none" stroke = "black"/>
</g>
<g>
<polygon points = "137.927, 285.685 199.668, 217.436 230.536, 236.804 250.524, 319.314 163.538, 365.127 "
fill = "none" stroke = "black"/>
</g>
<g>
<polygon points = "761.060, 267.317 886.521, 314.367 858.623, 401.540 792.777, 372.146 749.984, 287.611 "
fill = "none" stroke = "black"/>
</g>
<g>
<polygon points = "478.128, 86.068 477.897, 82.053 600.511, 40.148 593.526, 169.573 519.682, 150.474 "
fill = "none" stroke = "black"/>
</g>
<g>
<polygon points = "852.018, 186.392 866.084, 210.752 761.642, 260.692 737.884, 233.093 750.557, 125.885 817.607, 157.690 "
fill = "none" stroke = "black"/>
</g>
<g>
<polygon points = "250.912, 710.095 253.012, 684.708 259.840, 673.871 267.111, 670.687 457.465, 643.922 338.223, 742.843 "
fill = "none" stroke = "black"/>
</g>
<g>
<polygon points = "761.642, 260.692 866.084, 210.752 946.056, 258.180 886.521, 314.367 761.060, 267.317 "
fill = "none" stroke = "black"/>
</g>
<g>
<polygon points = "862.713, 407.950 862.592, 405.838 1000.000, 315.921 1000.000, 459.499 "
fill = "none" stroke = "black"/>
</g>
<g>
<polygon points = "919.066, 687.224 905.178, 672.568 884.801, 631.061 916.201, 593.845 1000.000, 587.483 1000.000, 696.657 "
fill = "none" stroke = "black"/>
</g>
<g>
<polygon points = "643.850, 176.893 737.884, 233.093 761.642, 260.692 761.060, 267.317 749.984, 287.611 655.991, 289.499 625.689, 258.115 630.942, 186.866 "
fill = "none" stroke = "black"/>
</g>
<g>
<polygon points = "916.201, 593.845 884.801, 631.061 812.187, 585.790 810.661, 509.361 831.803, 474.567 840.123, 466.378 871.189, 507.490 "
fill = "none" stroke = "black"/>
</g>
<g>
<polygon points = "928.678, 1000.000 883.560, 920.113 986.539, 881.595 1000.000, 880.552 1000.000, 1000.000 "
fill = "none" stroke = "black"/>
</g>
<g>
<polygon points = "11.829, 745.400 111.604, 864.099 112.863, 867.186 0.000, 908.367 0.000, 745.188 "
fill = "none" stroke = "black"/>
</g>
<g>
<polygon points = "489.791, 847.896 403.956, 815.146 396.260, 789.725 491.256, 692.567 507.259, 705.167 510.627, 732.592 "
fill = "none" stroke = "black"/>
</g>
<g>
<polygon points = "986.539, 881.595 847.720, 833.078 871.382, 783.011 892.219, 770.083 1000.000, 817.850 1000.000, 880.552 "
fill = "none" stroke = "black"/>
</g>
<g>
<polygon points = "519.682, 150.474 593.526, 169.573 630.942, 186.866 625.689, 258.115 581.914, 266.812 508.980, 218.168 506.408, 213.684 "
fill = "none" stroke = "black"/>
</g>
<g>
<polygon points = "440.798, 942.088 507.033, 882.097 520.542, 892.690 565.988, 1000.000 433.472, 1000.000 "
fill = "none" stroke = "black"/>
</g>
<g>
<polygon points = "737.884, 233.093 643.850, 176.893 680.913, 78.016 698.944, 82.956 750.557, 125.885 "
fill = "none" stroke = "black"/>
</g>
<g>
<polygon points = "795.260, 682.517 788.031, 736.141 766.447, 745.075 655.743, 599.233 679.176, 583.257 732.728, 598.229 "
fill = "none" stroke = "black"/>
</g>
<g>
<polygon points = "138.365, 496.973 136.713, 519.057 127.823, 557.085 75.562, 620.345 48.070, 604.692 60.331, 445.956 "
fill = "none" stroke = "black"/>
</g>
<g>
<polygon points = "810.661, 509.361 659.013, 533.557 608.913, 483.776 729.502, 462.276 831.803, 474.567 "
fill = "none" stroke = "black"/>
</g>
<g>
<polygon points = "379.253, 542.029 350.067, 406.579 363.170, 384.053 363.874, 383.290 375.257, 384.664 444.834, 460.132 447.328, 479.259 421.719, 554.880 "
fill = "none" stroke = "black"/>
</g>
<g>
<polygon points = "77.269, 265.572 89.239, 246.165 137.927, 285.685 163.538, 365.127 158.853, 377.579 70.373, 412.306 "
fill = "none" stroke = "black"/>
</g>
<g>
<polygon points = "48.070, 604.692 75.562, 620.345 79.989, 625.045 93.314, 698.797 11.829, 745.400 0.000, 745.188 0.000, 611.561 "
fill = "none" stroke = "black"/>
</g>
<g>
<polygon points = "112.863, 867.186 127.915, 870.103 166.345, 911.912 175.873, 951.707 0.000, 940.534 0.000, 908.367 "
fill = "none" stroke = "black"/>
</g>
<g>
<polygon points = "478.128, 86.068 519.682, 150.474 506.408, 213.684 413.814, 180.845 388.765, 129.888 "
fill = "none" stroke = "black"/>
</g>
<g>
<polygon points = "839.665, 8.483 836.452, 11.509 698.944, 82.956 680.913, 78.016 637.642, 14.238 633.649, 0.000 840.214, 0.000 "
fill = "none" stroke = "black"/>
</g>
<g>
<polygon points = "138.365, 496.973 200.682, 441.922 266.252, 487.970 284.505, 552.119 281.084, 563.784 136.713, 519.057 "
fill = "none" stroke = "black"/>
</g>
<g>
<polygon points = "680.913, 78.016 643.850, 176.893 630.942, 186.866 593.526, 169.573 600.511, 40.148 637.642, 14.238 "
fill = "none" stroke = "black"/>
</g>
<g>
<polygon points = "77.269, 265.572 70.373, 412.306 56.187, 425.171 0.000, 424.311 0.000, 307.502 "
fill = "none" stroke = "black"/>
</g>
<g>
<polygon points = "375.257, 384.664 444.993, 330.077 478.665, 351.686 512.153, 392.355 519.209, 407.806 444.834, 460.132 "
fill = "none" stroke = "black"/>
</g>
<g>
<polygon points = "512.153, 392.355 569.719, 313.928 630.480, 422.469 600.099, 477.691 589.602, 478.097 519.209, 407.806 "
fill = "none" stroke = "black"/>
</g>
<g>
<polygon points = "477.897, 82.053 478.128, 86.068 388.765, 129.888 354.335, 94.047 352.113, 90.990 400.202, 0.000 440.989, 0.000 "
fill = "none" stroke = "black"/>
</g>
<g>
<polygon points = "75.562, 620.345 127.823, 557.085 260.928, 654.964 259.840, 673.871 253.012, 684.708 79.989, 625.045 "
fill = "none" stroke = "black"/>
</g>
</svg>