<svg xmlns = "http://www.w3.org/2000/svg" width = "1000" height = "1000">
<g>
<polygon points = "968.476, 943.536 923.712, 988.255 878.050, 1000.000 776.505, 1000.000 761.741, 984.844 961.886, 797.516 972.207, 795.111 976.355, 811.351 "
fill = "none" stroke = "black"/>
</g>
<g>
<polygon points = "999.793, 996.612 999.599, 996.723 998.633, 996.273 997.391, 986.460 998.561, 983.805 999.084, 983.959 1000.000, 984.843 1000.000, 995.620 "
fill = "none" stroke = "black"/>
</g>
<g>
<polygon points = "1.126, 901.093 12.894, 894.152 15.642, 895.173 15.479, 909.051 0.000, 950.882 0.000, 903.950 "
fill = "none" stroke = "black"/>
</g>
<g>
<polygon points = "32.502, 882.605 143.439, 996.618 138.280, 998.746 100.659, 1000.000 77.197, 1000.000 66.731, 997.815 39.499, 974.593 15.479, 909.051 15.642, 895.173 "
fill = "none" stroke = "black"/>
</g>
<g>
<polygon points = "976.697, 999.099 978.121, 998.541 980.026, 998.360 985.157, 1000.000 976.202, 1000.000 "
fill = "none" stroke = "black"/>
</g>
<g>
<polygon points = "34.453, 2.235 21.571, 0.000 47.365, 0.000 "
fill = "none" stroke = "black"/>
</g>
<g>
<polygon points = "403.078, 997.961 380.232, 993.435 564.864, 951.432 761.741, 984.844 776.505, 1000.000 502.989, 1000.000 "
fill = "none" stroke = "black"/>
</g>
<g>
<polygon points = ""
fill = "none" stroke = "black"/>
</g>
<g>
<polygon points = "83.929, 505.178 25.915, 760.383 7.402, 732.836 0.000, 663.113 0.000, 445.470 "
fill = "none" stroke = "black"/>
</g>
<g>
<polygon points = "878.305, 519.874 743.782, 416.160 927.581, 234.212 1000.000, 234.216 1000.000, 426.275 "
fill = "none" stroke = "black"/>
</g>
<g>
<polygon points = "399.155, 11.352 339.949, 0.000 485.074, 0.000 "
fill = "none" stroke = "black"/>
</g>
<g>
<polygon points = "993.582, 6.882 992.080, 4.872 999.285, 1.043 1000.000, 1.292 1000.000, 8.125 "
fill = "none" stroke = "black"/>
</g>
<g>
<polygon points = "976.355, 811.351 972.207, 795.111 982.273, 765.860 993.417, 759.725 995.571, 761.806 1000.000, 780.310 1000.000, 843.249 "
fill = "none" stroke = "black"/>
</g>
<g>
<polygon points = "989.120, 0.152 989.722, 1.204 989.641, 2.440 979.265, 19.986 848.290, 7.947 835.581, 1.908 840.378, 0.000 988.982, 0.000 "
fill = "none" stroke = "black"/>
</g>
<g>
<polygon points = ""
fill = "none" stroke = "black"/>
</g>
<g>
<polygon points = "2.425, 999.915 9.081, 999.533 10.913, 1000.000 2.335, 1000.000 "
fill = "none" stroke = "black"/>
</g>
<g>
<polygon points = ""
fill = "none" stroke = "black"/>
</g>
<g>
<polygon points = "999.285, 1.043 992.080, 4.872 989.641, 2.440 989.722, 1.204 995.789, 0.012 995.878, 0.000 997.073, 0.000 "
fill = "none" stroke = "black"/>
</g>
<g>
<polygon points = "943.832, 996.245 978.121, 998.541 976.697, 999.099 966.648, 1000.000 937.444, 1000.000 "
fill = "none" stroke = "black"/>
</g>
<g>
<polygon points = "993.417, 759.725 982.273, 765.860 878.305, 519.874 1000.000, 426.275 1000.000, 723.669 "
fill = "none" stroke = "black"/>
</g>
<g>
<polygon points = ""
fill = "none" stroke = "black"/>
</g>
<g>
<polygon points = "5.510, 987.100 5.613, 982.172 39.499, 974.593 66.731, 997.815 29.549, 1000.000 10.913, 1000.000 9.081, 999.533 "
fill = "none" stroke = "black"/>
</g>
<g>
<polygon points = ""
fill = "none" stroke = "black"/>
</g>
<g>
<polygon points = "200.324, 991.520 203.475, 990.937 225.201, 996.264 227.824, 1000.000 195.588, 1000.000 "
fill = "none" stroke = "black"/>
</g>
<g>
<polygon points = "1.947, 858.976 12.894, 894.152 1.126, 901.093 0.000, 895.578 0.000, 858.642 "
fill = "none" stroke = "black"/>
</g>
<g>
<polygon points = "979.265, 19.986 989.641, 2.440 992.080, 4.872 993.582, 6.882 1000.000, 35.114 1000.000, 67.079 "
fill = "none" stroke = "black"/>
</g>
<g>
<polygon points = "165.013, 16.718 151.033, 29.710 12.843, 32.487 8.463, 27.450 34.453, 2.235 47.365, 0.000 120.774, 0.000 "
fill = "none" stroke = "black"/>
</g>
<g>
<polygon points = ""
fill = "none" stroke = "black"/>
</g>
<g>
<polygon points = "202.306, 1.825 193.783, 3.299 187.809, 0.000 202.941, 0.000 "
fill = "none" stroke = "black"/>
</g>
<g>
<polygon points = "138.280, 998.746 137.892, 1000.000 100.659, 1000.000 "
fill = "none" stroke = "black"/>
</g>
<g>
<polygon points = "1.980, 23.239 1.765, 23.259 0.000, 22.187 0.000, 6.048 "
fill = "none" stroke = "black"/>
</g>
<g>
<polygon points = "138.280, 998.746 143.439, 996.618 146.155, 996.638 151.778, 1000.000 137.892, 1000.000 "
fill = "none" stroke = "black"/>
</g>
<g>
<polygon points = "225.201, 996.264 380.232, 993.435 403.078, 997.961 395.137, 1000.000 227.824, 1000.000 "
fill = "none" stroke = "black"/>
</g>
<g>
<polygon points = "999.285, 1.043 997.073, 0.000 1000.000, 0.000 1000.000, 1.292 "
fill = "none" stroke = "black"/>
</g>
<g>
<polygon points = "318.424, 827.361 127.665, 455.986 136.630, 429.846 195.830, 296.875 615.733, 434.211 517.466, 715.286 "
fill = "none" stroke = "black"/>
</g>
<g>
<polygon points = "399.155, 11.352 510.018, 39.345 630.398, 270.832 677.063, 393.444 615.733, 434.211 195.830, 296.875 151.033, 29.710 165.013, 16.718 193.783, 3.299 202.306, 1.825 302.845, 0.000 339.949, 0.000 "
fill = "none" stroke = "black"/>
</g>
<g>
<polygon points = "976.697, 999.099 976.202, 1000.000 966.648, 1000.000 "
fill = "none" stroke = "black"/>
</g>
<g>
<polygon points = "835.581, 1.908 776.716, 0.000 840.378, 0.000 "
fill = "none" stroke = "black"/>
</g>
<g>
<polygon points = ""
fill = "none" stroke = "black"/>
</g>
<g>
<polygon points = ""
fill = "none" stroke = "black"/>
</g>
<g>
<polygon points = ""
fill = "none" stroke = "black"/>
</g>
<g>
<polygon points = ""
fill = "none" stroke = "black"/>
</g>
<g>
<polygon points = ""
fill = "none" stroke = "black"/>
</g>
<g>
<polygon points = "927.581, 234.212 854.385, 68.954 848.290, 7.947 979.265, 19.986 1000.000, 67.079 1000.000, 234.216 "
fill = "none" stroke = "black"/>
</g>
<g>
<polygon points = "637.207, 781.245 961.886, 797.516 761.741, 984.844 564.864, 951.432 "
fill = "none" stroke = "black"/>
</g>
<g>
<polygon points = "4.811, 68.409 136.630, 429.846 127.665, 455.986 83.929, 505.178 0.000, 445.470 0.000, 85.028 "
fill = "none" stroke = "black"/>
</g>
<g>
<polygon points = "2.425, 999.915 2.335, 1000.000 0.000, 1000.000 0.000, 998.149 "
fill = "none" stroke = "black"/>
</g>
<g>
<polygon points = "1.765, 23.259 0.000, 27.669 0.000, 22.187 "
fill = "none" stroke = "black"/>
</g>
<g>
<polygon points = "943.832, 996.245 937.444, 1000.000 878.050, 1000.000 923.712, 988.255 "
fill = "none" stroke = "black"/>
</g>
<g>
<polygon points = "15.479, 909.051 39.499, 974.593 5.613, 982.172 0.000, 965.179 0.000, 950.882 "
fill = "none" stroke = "black"/>
</g>
<g>
<polygon points = ""
fill = "none" stroke = "black"/>
</g>
<g>
<polygon points = "0.000, 0.120 0.000, 0.000 0.111, 0.000 "
fill = "none" stroke = "black"/>
</g>
<g>
<polygon points = "998.267, 1000.000 996.436, 1000.000 998.633, 996.273 999.599, 996.723 "
fill = "none" stroke = "black"/>
</g>
<g>
<polygon points = "5.613, 982.172 5.510, 987.100 2.049, 990.085 0.000, 965.666 0.000, 965.179 "
fill = "none" stroke = "black"/>
</g>
<g>
<polygon points = ""
fill = "none" stroke = "black"/>
</g>
<g>
<polygon points = "994.538, 965.917 998.561, 983.805 997.391, 986.460 980.026, 998.360 978.121, 998.541 943.832, 996.245 923.712, 988.255 968.476, 943.536 "
fill = "none" stroke = "black"/>
</g>
<g>
<polygon points = "995.789, 0.012 989.120, 0.152 988.982, 0.000 995.878, 0.000 "
fill = "none" stroke = "black"/>
</g>
<g>
<polygon points = "999.793, 996.612 1000.000, 995.620 1000.000, 996.876 "
fill = "none" stroke = "black"/>
</g>
<g>
<polygon points = "995.571, 761.806 1000.000, 760.922 1000.000, 780.310 "
fill = "none" stroke = "black"/>
</g>
<g>
<polygon points = "7.402, 732.836 5.441, 740.080 0.000, 743.252 0.000, 663.113 "
fill = "none" stroke = "black"/>
</g>
<g>
<polygon points = "1.126, 901.093 0.000, 903.950 0.000, 895.578 "
fill = "none" stroke = "black"/>
</g>
<g>
<polygon points = "403.078, 997.961 502.989, 1000.000 395.137, 1000.000 "
fill = "none" stroke = "black"/>
</g>
<g>
<polygon points = ""
fill = "none" stroke = "black"/>
</g>
<g>
<polygon points = "2.049, 990.085 5.510, 987.100 9.081, 999.533 2.425, 999.915 0.000, 998.149 0.000, 993.912 "
fill = "none" stroke = "black"/>
</g>
<g>
<polygon points = "193.783, 3.299 165.013, 16.718 120.774, 0.000 187.809, 0.000 "
fill = "none" stroke = "black"/>
</g>
<g>
<polygon points = "999.084, 983.959 998.561, 983.805 994.538, 965.917 1000.000, 936.535 1000.000, 947.342 "
fill = "none" stroke = "black"/>
</g>
<g>
<polygon points = "2.049, 990.085 0.000, 993.912 0.000, 965.666 "
fill = "none" stroke = "black"/>
</g>
<g>
<polygon points = "202.306, 1.825 202.941, 0.000 302.845, 0.000 "
fill = "none" stroke = "black"/>
</g>
<g>
<polygon points = "993.582, 6.882 1000.000, 8.125 1000.000, 35.114 "
fill = "none" stroke = "black"/>
</g>
<g>
<polygon points = "995.789, 0.012 989.722, 1.204 989.120, 0.152 "
fill = "none" stroke = "black"/>
</g>
<g>
<polygon points = "998.267, 1000.000 999.599, 996.723 999.793, 996.612 1000.000, 996.876 1000.000, 1000.000 "
fill = "none" stroke = "black"/>
</g>
<g>
<polygon points = ""
fill = "none" stroke = "black"/>
</g>
<g>
<polygon points = "521.630, 34.930 534.311, 0.000 734.366, 0.000 "
fill = "none" stroke = "black"/>
</g>
<g>
<polygon points = ""
fill = "none" stroke = "black"/>
</g>
<g>
<polygon points = ""
fill = "none" stroke = "black"/>
</g>
<g>
<polygon points = "12.843, 32.487 151.033, 29.710 195.830, 296.875 136.630, 429.846 4.811, 68.409 "
fill = "none" stroke = "black"/>
</g>
<g>
<polygon points = ""
fill = "none" stroke = "black"/>
</g>
<g>
<polygon points = "66.731, 997.815 77.197, 1000.000 29.549, 1000.000 "
fill = "none" stroke = "black"/>
</g>
<g>
<polygon points = ""
fill = "none" stroke = "black"/>
</g>
<g>
<polygon points = "835.581, 1.908 848.290, 7.947 854.385, 68.954 630.398, 270.832 510.018, 39.345 521.630, 34.930 734.366, 0.000 776.716, 0.000 "
fill = "none" stroke = "black"/>
</g>
<g>
<polygon points = "1.765, 23.259 1.980, 23.239 8.463, 27.450 12.843, 32.487 4.811, 68.409 0.000, 85.028 0.000, 27.669 "
fill = "none" stroke = "black"/>
</g>
<g>
<polygon points = "999.084, 983.959 1000.000, 947.342 1000.000, 984.843 "
fill = "none" stroke = "black"/>
</g>
<g>
<polygon points = "994.538, 965.917 968.476, 943.536 976.355, 811.351 1000.000, 843.249 1000.000, 936.535 "
fill = "none" stroke = "black"/>
</g>
<g>
<polygon points = "995.571, 761.806 993.417, 759.725 1000.000, 723.669 1000.000, 760.922 "
fill = "none" stroke = "black"/>
</g>
<g>
<polygon points = "521.630, 34.930 510.018, 39.345 399.155, 11.352 485.074, 0.000 534.311, 0.000 "
fill = "none" stroke = "black"/>
</g>
<g>
<polygon points = "34.453, 2.235 8.463, 27.450 1.980, 23.239 0.000, 6.048 0.000, 0.120 0.111, 0.000 21.571, 0.000 "
fill = "none" stroke = "black"/>
</g>
<g>
<polygon points = "127.665, 455.986 318.424, 827.361 203.475, 990.937 200.324, 991.520 146.155, 996.638 143.439, 996.618 32.502, 882.605 25.915, 760.383 83.929, 505.178 "
fill = "none" stroke = "black"/>
</g>
<g>
<polygon points = "854.385, 68.954 927.581, 234.212 743.782, 416.160 677.063, 393.444 630.398, 270.832 "
fill = "none" stroke = "black"/>
</g>
<g>
<polygon points = ""
fill = "none" stroke = "black"/>
</g>
<g>
<polygon points = "5.441, 740.080 7.402, 732.836 25.915, 760.383 32.502, 882.605 15.642, 895.173 12.894, 894.152 1.947, 858.976 "
fill = "none" stroke = "black"/>
</g>
<g>
<polygon points = "146.155, 996.638 200.324, 991.520 195.588, 1000.000 151.778, 1000.000 "
fill = "none" stroke = "black"/>
</g>
<g>
<polygon points = "997.391, 986.460 998.633, 996.273 996.436, 1000.000 985.157, 1000.000 980.026, 998.360 "
fill = "none" stroke = "black"/>
</g>
<g>
<polygon points = "982.273, 765.860 972.207, 795.111 961.886, 797.516 637.207, 781.245 517.466, 715.286 615.733, 434.211 677.063, 393.444 743.782, 416.160 878.305, 519.874 "
fill = "none" stroke = "black"/>
</g>
<g>
<polygon points = ""
fill = "none" stroke = "black"/>
</g>
<g>
<polygon points = "318.424, 827.361 517.466, 715.286 637.207, 781.245 564.864, 951.432 380.232, 993.435 225.201, 996.264 203.475, 990.937 "
fill = "none" stroke = "black"/>
</g>
<g>
<polygon points = ""
fill = "none" stroke = "black"/>
</g>
<g>
<polygon points = ""
fill = "none" stroke = "black"/>
</g>
<g>
<polygon points = ""
fill = "none" stroke = "black"/>
</g>
<g>
<polygon points = ""
fill = "none" stroke = "black"/>
</g>
<g>
<polygon points = "5.441, 740.080 1.947, 858.976 0.000, 858.642 0.000, 743.252 "
fill = "none" stroke = "black"/>
</g>
</svg>
